<svg xmlns="http://www.w3.org/2000/svg" width="800" height="400" viewBox="0 0 800 400">
  <rect width="800" height="400" rx="12" fill="#1a1a2e"/>
  <rect x="0" y="380" width="800" height="20" rx="0" fill="#1D9BF0" opacity="0.6"/>
  <!-- Waveform bars -->
  <rect x="200" y="160" width="8" height="80" rx="4" fill="#ffffff" opacity="0.08"/>
  <rect x="220" y="140" width="8" height="120" rx="4" fill="#ffffff" opacity="0.08"/>
  <rect x="240" y="120" width="8" height="160" rx="4" fill="#ffffff" opacity="0.10"/>
  <rect x="260" y="100" width="8" height="200" rx="4" fill="#ffffff" opacity="0.12"/>
  <rect x="280" y="130" width="8" height="140" rx="4" fill="#ffffff" opacity="0.10"/>
  <rect x="300" y="110" width="8" height="180" rx="4" fill="#ffffff" opacity="0.12"/>
  <rect x="320" y="80" width="8" height="240" rx="4" fill="#ffffff" opacity="0.14"/>
  <rect x="340" y="100" width="8" height="200" rx="4" fill="#ffffff" opacity="0.12"/>
  <rect x="360" y="60" width="8" height="280" rx="4" fill="#ffffff" opacity="0.16"/>
  <rect x="380" y="90" width="8" height="220" rx="4" fill="#ffffff" opacity="0.14"/>
  <rect x="400" y="70" width="8" height="260" rx="4" fill="#ffffff" opacity="0.16"/>
  <rect x="420" y="90" width="8" height="220" rx="4" fill="#ffffff" opacity="0.14"/>
  <rect x="440" y="60" width="8" height="280" rx="4" fill="#ffffff" opacity="0.16"/>
  <rect x="460" y="100" width="8" height="200" rx="4" fill="#ffffff" opacity="0.12"/>
  <rect x="480" y="80" width="8" height="240" rx="4" fill="#ffffff" opacity="0.14"/>
  <rect x="500" y="110" width="8" height="180" rx="4" fill="#ffffff" opacity="0.12"/>
  <rect x="520" y="130" width="8" height="140" rx="4" fill="#ffffff" opacity="0.10"/>
  <rect x="540" y="100" width="8" height="200" rx="4" fill="#ffffff" opacity="0.12"/>
  <rect x="560" y="120" width="8" height="160" rx="4" fill="#ffffff" opacity="0.10"/>
  <rect x="580" y="140" width="8" height="120" rx="4" fill="#ffffff" opacity="0.08"/>
  <rect x="600" y="160" width="8" height="80" rx="4" fill="#ffffff" opacity="0.08"/>
  <text x="400" y="195" font-family="sans-serif" font-size="28" font-weight="600" fill="#ffffff" text-anchor="middle">App Preview</text>
  <text x="400" y="225" font-family="sans-serif" font-size="14" fill="#ffffff" opacity="0.5" text-anchor="middle">iPhone + Android device mockups coming soon</text>
</svg>
