<svg xmlns="http://www.w3.org/2000/svg" width="300" height="600" viewBox="0 0 300 600">
  <rect width="300" height="600" rx="24" fill="#1a1a2e"/>
  <rect x="4" y="4" width="292" height="592" rx="20" fill="none" stroke="#ffffff" stroke-opacity="0.1" stroke-width="1"/>
  <!-- Status bar -->
  <rect x="100" y="12" width="100" height="4" rx="2" fill="#ffffff" opacity="0.2"/>
  <!-- Screen content placeholder -->
  <rect x="20" y="40" width="260" height="30" rx="6" fill="#ffffff" opacity="0.06"/>
  <rect x="20" y="85" width="60" height="60" rx="6" fill="#ffffff" opacity="0.06"/>
  <rect x="90" y="90" width="140" height="12" rx="3" fill="#ffffff" opacity="0.08"/>
  <rect x="90" y="110" width="90" height="10" rx="3" fill="#ffffff" opacity="0.04"/>
  <rect x="20" y="160" width="60" height="60" rx="6" fill="#ffffff" opacity="0.06"/>
  <rect x="90" y="165" width="140" height="12" rx="3" fill="#ffffff" opacity="0.08"/>
  <rect x="90" y="185" width="90" height="10" rx="3" fill="#ffffff" opacity="0.04"/>
  <rect x="20" y="235" width="60" height="60" rx="6" fill="#ffffff" opacity="0.06"/>
  <rect x="90" y="240" width="140" height="12" rx="3" fill="#ffffff" opacity="0.08"/>
  <rect x="90" y="260" width="90" height="10" rx="3" fill="#ffffff" opacity="0.04"/>
  <rect x="20" y="310" width="60" height="60" rx="6" fill="#ffffff" opacity="0.06"/>
  <rect x="90" y="315" width="140" height="12" rx="3" fill="#ffffff" opacity="0.08"/>
  <rect x="90" y="335" width="90" height="10" rx="3" fill="#ffffff" opacity="0.04"/>
  <rect x="20" y="385" width="60" height="60" rx="6" fill="#ffffff" opacity="0.06"/>
  <rect x="90" y="390" width="140" height="12" rx="3" fill="#ffffff" opacity="0.08"/>
  <rect x="90" y="410" width="90" height="10" rx="3" fill="#ffffff" opacity="0.04"/>
  <rect x="20" y="460" width="60" height="60" rx="6" fill="#ffffff" opacity="0.06"/>
  <rect x="90" y="465" width="140" height="12" rx="3" fill="#ffffff" opacity="0.08"/>
  <rect x="90" y="485" width="90" height="10" rx="3" fill="#ffffff" opacity="0.04"/>
  <!-- Label -->
  <rect x="100" y="270" width="100" height="36" rx="8" fill="#1D9BF0" opacity="0.15"/>
  <text x="150" y="294" font-family="sans-serif" font-size="16" font-weight="600" fill="#1D9BF0" text-anchor="middle">Library</text>
  <!-- Bottom nav bar -->
  <rect x="0" y="555" width="300" height="45" rx="0" fill="#ffffff" opacity="0.04"/>
  <rect x="30" y="568" width="24" height="4" rx="2" fill="#ffffff" opacity="0.2"/>
  <rect x="90" y="568" width="24" height="4" rx="2" fill="#ffffff" opacity="0.2"/>
  <rect x="186" y="568" width="24" height="4" rx="2" fill="#ffffff" opacity="0.2"/>
  <rect x="246" y="568" width="24" height="4" rx="2" fill="#ffffff" opacity="0.2"/>
</svg>
