<svg xmlns="http://www.w3.org/2000/svg" width="300" height="600" viewBox="0 0 300 600">
  <rect width="300" height="600" rx="24" fill="#1a1a2e"/>
  <rect x="4" y="4" width="292" height="592" rx="20" fill="none" stroke="#ffffff" stroke-opacity="0.1" stroke-width="1"/>
  <!-- Status bar -->
  <rect x="100" y="12" width="100" height="4" rx="2" fill="#ffffff" opacity="0.2"/>
  <!-- Back button -->
  <rect x="20" y="40" width="24" height="24" rx="4" fill="#ffffff" opacity="0.08"/>
  <!-- Album art -->
  <rect x="20" y="75" width="260" height="260" rx="12" fill="#ffffff" opacity="0.06"/>
  <!-- Album info -->
  <rect x="20" y="350" width="180" height="18" rx="4" fill="#ffffff" opacity="0.10"/>
  <rect x="20" y="376" width="120" height="14" rx="3" fill="#ffffff" opacity="0.06"/>
  <rect x="20" y="398" width="80" height="12" rx="3" fill="#ffffff" opacity="0.04"/>
  <!-- Track list -->
  <rect x="20" y="430" width="260" height="40" rx="6" fill="#ffffff" opacity="0.04"/>
  <rect x="20" y="478" width="260" height="40" rx="6" fill="#ffffff" opacity="0.04"/>
  <rect x="20" y="526" width="260" height="40" rx="6" fill="#ffffff" opacity="0.04"/>
  <!-- Label -->
  <rect x="75" y="270" width="150" height="36" rx="8" fill="#1D9BF0" opacity="0.15"/>
  <text x="150" y="294" font-family="sans-serif" font-size="16" font-weight="600" fill="#1D9BF0" text-anchor="middle">Album Detail</text>
  <!-- Bottom nav bar -->
  <rect x="0" y="555" width="300" height="45" rx="0" fill="#ffffff" opacity="0.04"/>
  <rect x="30" y="568" width="24" height="4" rx="2" fill="#ffffff" opacity="0.2"/>
  <rect x="90" y="568" width="24" height="4" rx="2" fill="#ffffff" opacity="0.2"/>
  <rect x="186" y="568" width="24" height="4" rx="2" fill="#ffffff" opacity="0.2"/>
  <rect x="246" y="568" width="24" height="4" rx="2" fill="#ffffff" opacity="0.2"/>
</svg>
