<svg xmlns="http://www.w3.org/2000/svg" width="32" height="32" viewBox="0 0 200 200">
  <rect width="200" height="200" rx="40" ry="40" fill="#1D9BF0"/>
  <rect x="20" y="76" width="13.56" height="48" rx="6.78" ry="6.78" fill="#FFF"/>
  <rect x="38.3" y="56" width="13.56" height="88" rx="6.78" ry="6.78" fill="#FFF"/>
  <rect x="56.6" y="36" width="13.56" height="128" rx="6.78" ry="6.78" fill="#FFF"/>
  <rect x="74.9" y="60" width="13.56" height="80" rx="6.78" ry="6.78" fill="#FFF"/>
  <rect x="93.2" y="20" width="13.56" height="160" rx="6.78" ry="6.78" fill="#FFF"/>
  <rect x="111.5" y="64" width="13.56" height="72" rx="6.78" ry="6.78" fill="#FFF"/>
  <rect x="129.8" y="28" width="13.56" height="144" rx="6.78" ry="6.78" fill="#FFF"/>
  <rect x="148.1" y="52" width="13.56" height="96" rx="6.78" ry="6.78" fill="#FFF"/>
  <rect x="166.4" y="72" width="13.56" height="56" rx="6.78" ry="6.78" fill="#FFF"/>
</svg>
